<mxfile host="app.diagrams.net" agent="Mozilla/5.0 (Windows NT 10.0; Win64; x64) AppleWebKit/537.36 (KHTML, like Gecko) Chrome/135.0.0.0 Safari/537.36" version="26.1.1">
  <diagram id="SsK5X6SGhUZKLY7UMta4" name="Page-1">
    <mxGraphModel dx="1222" dy="686" grid="1" gridSize="10" guides="1" tooltips="1" connect="1" arrows="1" fold="1" page="1" pageScale="1" pageWidth="1169" pageHeight="827" math="0" shadow="0">
      <root>
        <mxCell id="0" />
        <mxCell id="1" parent="0" />
        <mxCell id="4QrN3t5a6KuFMCz43YTg-101" style="edgeStyle=orthogonalEdgeStyle;rounded=0;orthogonalLoop=1;jettySize=auto;html=1;exitX=1;exitY=0.5;exitDx=0;exitDy=0;entryX=0;entryY=0.5;entryDx=0;entryDy=0;" parent="1" source="4QrN3t5a6KuFMCz43YTg-1" target="4QrN3t5a6KuFMCz43YTg-99" edge="1">
          <mxGeometry relative="1" as="geometry" />
        </mxCell>
        <mxCell id="4QrN3t5a6KuFMCz43YTg-1" value="" style="ellipse;fillColor=strokeColor;html=1;" parent="1" vertex="1">
          <mxGeometry x="160" y="130" width="30" height="30" as="geometry" />
        </mxCell>
        <mxCell id="4QrN3t5a6KuFMCz43YTg-8" value="Component" style="swimlane;" parent="1" vertex="1">
          <mxGeometry x="160" y="190" width="590" height="360" as="geometry">
            <mxRectangle x="160" y="180" width="90" height="30" as="alternateBounds" />
          </mxGeometry>
        </mxCell>
        <mxCell id="4QrN3t5a6KuFMCz43YTg-17" style="edgeStyle=orthogonalEdgeStyle;rounded=0;orthogonalLoop=1;jettySize=auto;html=1;exitX=0.5;exitY=1;exitDx=0;exitDy=0;entryX=0.5;entryY=0;entryDx=0;entryDy=0;" parent="4QrN3t5a6KuFMCz43YTg-8" source="4QrN3t5a6KuFMCz43YTg-15" target="4QrN3t5a6KuFMCz43YTg-16" edge="1">
          <mxGeometry relative="1" as="geometry" />
        </mxCell>
        <mxCell id="4QrN3t5a6KuFMCz43YTg-15" value="event holder&lt;br&gt;default:undefined" style="html=1;align=center;verticalAlign=middle;rounded=1;absoluteArcSize=1;arcSize=10;dashed=0;whiteSpace=wrap;" parent="4QrN3t5a6KuFMCz43YTg-8" vertex="1">
          <mxGeometry x="40" y="60" width="130" height="60" as="geometry" />
        </mxCell>
        <mxCell id="4QrN3t5a6KuFMCz43YTg-16" value="dynamic import" style="html=1;align=center;verticalAlign=middle;rounded=1;absoluteArcSize=1;arcSize=10;dashed=0;whiteSpace=wrap;" parent="4QrN3t5a6KuFMCz43YTg-8" vertex="1">
          <mxGeometry x="40" y="141" width="130" height="60" as="geometry" />
        </mxCell>
        <mxCell id="4QrN3t5a6KuFMCz43YTg-21" style="edgeStyle=orthogonalEdgeStyle;rounded=0;orthogonalLoop=1;jettySize=auto;html=1;exitX=1;exitY=0.5;exitDx=0;exitDy=0;exitPerimeter=0;entryX=0.5;entryY=1;entryDx=0;entryDy=0;" parent="4QrN3t5a6KuFMCz43YTg-8" source="4QrN3t5a6KuFMCz43YTg-18" target="4QrN3t5a6KuFMCz43YTg-20" edge="1">
          <mxGeometry relative="1" as="geometry" />
        </mxCell>
        <mxCell id="4QrN3t5a6KuFMCz43YTg-22" value="file exists" style="edgeLabel;html=1;align=center;verticalAlign=middle;resizable=0;points=[];" parent="4QrN3t5a6KuFMCz43YTg-21" vertex="1" connectable="0">
          <mxGeometry x="-0.1815" relative="1" as="geometry">
            <mxPoint as="offset" />
          </mxGeometry>
        </mxCell>
        <mxCell id="4QrN3t5a6KuFMCz43YTg-25" style="edgeStyle=orthogonalEdgeStyle;rounded=0;orthogonalLoop=1;jettySize=auto;html=1;exitX=0.5;exitY=1;exitDx=0;exitDy=0;exitPerimeter=0;" parent="4QrN3t5a6KuFMCz43YTg-8" source="4QrN3t5a6KuFMCz43YTg-18" target="4QrN3t5a6KuFMCz43YTg-24" edge="1">
          <mxGeometry relative="1" as="geometry" />
        </mxCell>
        <mxCell id="4QrN3t5a6KuFMCz43YTg-18" value="" style="strokeWidth=2;html=1;shape=mxgraph.flowchart.decision;whiteSpace=wrap;" parent="4QrN3t5a6KuFMCz43YTg-8" vertex="1">
          <mxGeometry x="90" y="222" width="30" height="30" as="geometry" />
        </mxCell>
        <mxCell id="4QrN3t5a6KuFMCz43YTg-19" style="edgeStyle=orthogonalEdgeStyle;rounded=0;orthogonalLoop=1;jettySize=auto;html=1;exitX=0.5;exitY=1;exitDx=0;exitDy=0;entryX=0.5;entryY=0;entryDx=0;entryDy=0;entryPerimeter=0;" parent="4QrN3t5a6KuFMCz43YTg-8" source="4QrN3t5a6KuFMCz43YTg-16" target="4QrN3t5a6KuFMCz43YTg-18" edge="1">
          <mxGeometry relative="1" as="geometry" />
        </mxCell>
        <mxCell id="4QrN3t5a6KuFMCz43YTg-20" value="update event" style="html=1;align=center;verticalAlign=middle;rounded=1;absoluteArcSize=1;arcSize=10;dashed=0;whiteSpace=wrap;" parent="4QrN3t5a6KuFMCz43YTg-8" vertex="1">
          <mxGeometry x="270" y="60" width="130" height="60" as="geometry" />
        </mxCell>
        <mxCell id="4QrN3t5a6KuFMCz43YTg-24" value="fetch API&lt;br&gt;(post request)" style="html=1;align=center;verticalAlign=middle;rounded=1;absoluteArcSize=1;arcSize=10;dashed=0;whiteSpace=wrap;" parent="4QrN3t5a6KuFMCz43YTg-8" vertex="1">
          <mxGeometry x="40" y="274" width="130" height="60" as="geometry" />
        </mxCell>
        <mxCell id="4QrN3t5a6KuFMCz43YTg-40" style="edgeStyle=orthogonalEdgeStyle;rounded=0;orthogonalLoop=1;jettySize=auto;html=1;exitX=0.5;exitY=0;exitDx=0;exitDy=0;exitPerimeter=0;entryX=0.5;entryY=1;entryDx=0;entryDy=0;" parent="4QrN3t5a6KuFMCz43YTg-8" source="4QrN3t5a6KuFMCz43YTg-33" target="4QrN3t5a6KuFMCz43YTg-39" edge="1">
          <mxGeometry relative="1" as="geometry" />
        </mxCell>
        <mxCell id="4QrN3t5a6KuFMCz43YTg-41" value="not OK response" style="edgeLabel;html=1;align=center;verticalAlign=middle;resizable=0;points=[];" parent="4QrN3t5a6KuFMCz43YTg-40" vertex="1" connectable="0">
          <mxGeometry x="0.2994" y="4" relative="1" as="geometry">
            <mxPoint as="offset" />
          </mxGeometry>
        </mxCell>
        <mxCell id="4QrN3t5a6KuFMCz43YTg-86" style="edgeStyle=orthogonalEdgeStyle;rounded=0;orthogonalLoop=1;jettySize=auto;html=1;exitX=0;exitY=0.5;exitDx=0;exitDy=0;exitPerimeter=0;entryX=0.5;entryY=1;entryDx=0;entryDy=0;" parent="4QrN3t5a6KuFMCz43YTg-8" source="4QrN3t5a6KuFMCz43YTg-33" target="4QrN3t5a6KuFMCz43YTg-85" edge="1">
          <mxGeometry relative="1" as="geometry">
            <Array as="points">
              <mxPoint x="447" y="237" />
              <mxPoint x="447" y="323" />
              <mxPoint x="365" y="323" />
            </Array>
          </mxGeometry>
        </mxCell>
        <mxCell id="4QrN3t5a6KuFMCz43YTg-87" value="OK response" style="edgeLabel;html=1;align=center;verticalAlign=middle;resizable=0;points=[];" parent="4QrN3t5a6KuFMCz43YTg-86" vertex="1" connectable="0">
          <mxGeometry x="0.1565" y="-4" relative="1" as="geometry">
            <mxPoint as="offset" />
          </mxGeometry>
        </mxCell>
        <mxCell id="4QrN3t5a6KuFMCz43YTg-33" value="" style="strokeWidth=2;html=1;shape=mxgraph.flowchart.decision;whiteSpace=wrap;" parent="4QrN3t5a6KuFMCz43YTg-8" vertex="1">
          <mxGeometry x="467" y="222" width="30" height="30" as="geometry" />
        </mxCell>
        <mxCell id="4QrN3t5a6KuFMCz43YTg-39" value="error holder&lt;div&gt;default:null&lt;/div&gt;" style="html=1;align=center;verticalAlign=middle;rounded=1;absoluteArcSize=1;arcSize=10;dashed=0;whiteSpace=wrap;" parent="4QrN3t5a6KuFMCz43YTg-8" vertex="1">
          <mxGeometry x="417" y="60" width="130" height="60" as="geometry" />
        </mxCell>
        <mxCell id="4QrN3t5a6KuFMCz43YTg-85" value="user acceptance&amp;nbsp;" style="html=1;align=center;verticalAlign=middle;rounded=1;absoluteArcSize=1;arcSize=10;dashed=0;whiteSpace=wrap;" parent="4QrN3t5a6KuFMCz43YTg-8" vertex="1">
          <mxGeometry x="300" y="243" width="130" height="60" as="geometry" />
        </mxCell>
        <mxCell id="4QrN3t5a6KuFMCz43YTg-91" style="edgeStyle=orthogonalEdgeStyle;rounded=0;orthogonalLoop=1;jettySize=auto;html=1;exitX=0.5;exitY=0;exitDx=0;exitDy=0;exitPerimeter=0;entryX=0.5;entryY=1;entryDx=0;entryDy=0;" parent="4QrN3t5a6KuFMCz43YTg-8" source="4QrN3t5a6KuFMCz43YTg-88" target="4QrN3t5a6KuFMCz43YTg-20" edge="1">
          <mxGeometry relative="1" as="geometry" />
        </mxCell>
        <mxCell id="4QrN3t5a6KuFMCz43YTg-92" value="accepted" style="edgeLabel;html=1;align=center;verticalAlign=middle;resizable=0;points=[];" parent="4QrN3t5a6KuFMCz43YTg-91" vertex="1" connectable="0">
          <mxGeometry x="-0.5743" y="-2" relative="1" as="geometry">
            <mxPoint as="offset" />
          </mxGeometry>
        </mxCell>
        <mxCell id="4QrN3t5a6KuFMCz43YTg-88" value="" style="strokeWidth=2;html=1;shape=mxgraph.flowchart.decision;whiteSpace=wrap;" parent="4QrN3t5a6KuFMCz43YTg-8" vertex="1">
          <mxGeometry x="350" y="170" width="30" height="30" as="geometry" />
        </mxCell>
        <mxCell id="4QrN3t5a6KuFMCz43YTg-89" style="edgeStyle=orthogonalEdgeStyle;rounded=0;orthogonalLoop=1;jettySize=auto;html=1;exitX=0.5;exitY=0;exitDx=0;exitDy=0;entryX=0.5;entryY=1;entryDx=0;entryDy=0;entryPerimeter=0;" parent="4QrN3t5a6KuFMCz43YTg-8" source="4QrN3t5a6KuFMCz43YTg-85" target="4QrN3t5a6KuFMCz43YTg-88" edge="1">
          <mxGeometry relative="1" as="geometry" />
        </mxCell>
        <mxCell id="4QrN3t5a6KuFMCz43YTg-104" value="End" style="points=[[0.145,0.145,0],[0.5,0,0],[0.855,0.145,0],[1,0.5,0],[0.855,0.855,0],[0.5,1,0],[0.145,0.855,0],[0,0.5,0]];shape=mxgraph.bpmn.event;html=1;verticalLabelPosition=bottom;labelBackgroundColor=#ffffff;verticalAlign=top;align=center;perimeter=ellipsePerimeter;outlineConnect=0;aspect=fixed;outline=end;symbol=terminate2;" parent="4QrN3t5a6KuFMCz43YTg-8" vertex="1">
          <mxGeometry x="200" y="75" width="30" height="30" as="geometry" />
        </mxCell>
        <mxCell id="4QrN3t5a6KuFMCz43YTg-106" style="edgeStyle=orthogonalEdgeStyle;rounded=0;orthogonalLoop=1;jettySize=auto;html=1;exitX=0;exitY=0.5;exitDx=0;exitDy=0;entryX=1;entryY=0.5;entryDx=0;entryDy=0;entryPerimeter=0;" parent="4QrN3t5a6KuFMCz43YTg-8" source="4QrN3t5a6KuFMCz43YTg-20" target="4QrN3t5a6KuFMCz43YTg-104" edge="1">
          <mxGeometry relative="1" as="geometry" />
        </mxCell>
        <mxCell id="4QrN3t5a6KuFMCz43YTg-45" value="" style="edgeStyle=entityRelationEdgeStyle;startArrow=none;endArrow=none;segment=10;curved=1;sourcePerimeterSpacing=0;targetPerimeterSpacing=0;rounded=0;exitX=0;exitY=0;exitDx=0;exitDy=0;" parent="4QrN3t5a6KuFMCz43YTg-8" source="4QrN3t5a6KuFMCz43YTg-24" edge="1">
          <mxGeometry relative="1" as="geometry">
            <mxPoint x="-120" y="280" as="sourcePoint" />
            <mxPoint x="50" y="266" as="targetPoint" />
          </mxGeometry>
        </mxCell>
        <mxCell id="4QrN3t5a6KuFMCz43YTg-11" style="edgeStyle=orthogonalEdgeStyle;rounded=0;orthogonalLoop=1;jettySize=auto;html=1;exitX=0;exitY=1;exitDx=0;exitDy=0;entryX=0.333;entryY=0.667;entryDx=0;entryDy=0;entryPerimeter=0;" parent="1" source="4QrN3t5a6KuFMCz43YTg-1" target="4QrN3t5a6KuFMCz43YTg-1" edge="1">
          <mxGeometry relative="1" as="geometry" />
        </mxCell>
        <mxCell id="4QrN3t5a6KuFMCz43YTg-26" value="Server" style="swimlane;" parent="1" vertex="1">
          <mxGeometry x="165" y="574" width="555" height="406" as="geometry" />
        </mxCell>
        <mxCell id="4QrN3t5a6KuFMCz43YTg-30" value="access request body" style="html=1;align=center;verticalAlign=middle;rounded=1;absoluteArcSize=1;arcSize=10;dashed=0;whiteSpace=wrap;" parent="4QrN3t5a6KuFMCz43YTg-26" vertex="1">
          <mxGeometry x="92" y="290" width="130" height="60" as="geometry" />
        </mxCell>
        <mxCell id="4QrN3t5a6KuFMCz43YTg-50" style="edgeStyle=orthogonalEdgeStyle;rounded=0;orthogonalLoop=1;jettySize=auto;html=1;exitX=1;exitY=0.5;exitDx=0;exitDy=0;exitPerimeter=0;entryX=0.5;entryY=0;entryDx=0;entryDy=0;" parent="4QrN3t5a6KuFMCz43YTg-26" source="4QrN3t5a6KuFMCz43YTg-46" target="4QrN3t5a6KuFMCz43YTg-49" edge="1">
          <mxGeometry relative="1" as="geometry" />
        </mxCell>
        <mxCell id="4QrN3t5a6KuFMCz43YTg-60" value="incomplete body" style="edgeLabel;html=1;align=center;verticalAlign=middle;resizable=0;points=[];" parent="4QrN3t5a6KuFMCz43YTg-50" vertex="1" connectable="0">
          <mxGeometry x="-0.1787" y="2" relative="1" as="geometry">
            <mxPoint as="offset" />
          </mxGeometry>
        </mxCell>
        <mxCell id="4QrN3t5a6KuFMCz43YTg-59" style="edgeStyle=orthogonalEdgeStyle;rounded=0;orthogonalLoop=1;jettySize=auto;html=1;exitX=0.5;exitY=0;exitDx=0;exitDy=0;exitPerimeter=0;entryX=0;entryY=0.5;entryDx=0;entryDy=0;" parent="4QrN3t5a6KuFMCz43YTg-26" source="4QrN3t5a6KuFMCz43YTg-46" target="4QrN3t5a6KuFMCz43YTg-58" edge="1">
          <mxGeometry relative="1" as="geometry" />
        </mxCell>
        <mxCell id="4QrN3t5a6KuFMCz43YTg-61" value="complete body" style="edgeLabel;html=1;align=center;verticalAlign=middle;resizable=0;points=[];" parent="4QrN3t5a6KuFMCz43YTg-59" vertex="1" connectable="0">
          <mxGeometry x="-0.5287" relative="1" as="geometry">
            <mxPoint as="offset" />
          </mxGeometry>
        </mxCell>
        <mxCell id="4QrN3t5a6KuFMCz43YTg-46" value="" style="strokeWidth=2;html=1;shape=mxgraph.flowchart.decision;whiteSpace=wrap;" parent="4QrN3t5a6KuFMCz43YTg-26" vertex="1">
          <mxGeometry x="140" y="227" width="40" height="40" as="geometry" />
        </mxCell>
        <mxCell id="4QrN3t5a6KuFMCz43YTg-49" value="error response" style="html=1;align=center;verticalAlign=middle;rounded=1;absoluteArcSize=1;arcSize=10;dashed=0;whiteSpace=wrap;" parent="4QrN3t5a6KuFMCz43YTg-26" vertex="1">
          <mxGeometry x="265" y="292" width="130" height="60" as="geometry" />
        </mxCell>
        <mxCell id="4QrN3t5a6KuFMCz43YTg-52" style="edgeStyle=orthogonalEdgeStyle;rounded=0;orthogonalLoop=1;jettySize=auto;html=1;exitX=0.5;exitY=0;exitDx=0;exitDy=0;entryX=0.5;entryY=1;entryDx=0;entryDy=0;entryPerimeter=0;" parent="4QrN3t5a6KuFMCz43YTg-26" source="4QrN3t5a6KuFMCz43YTg-30" target="4QrN3t5a6KuFMCz43YTg-46" edge="1">
          <mxGeometry relative="1" as="geometry" />
        </mxCell>
        <mxCell id="4QrN3t5a6KuFMCz43YTg-58" value="Google AI" style="html=1;align=center;verticalAlign=middle;rounded=1;absoluteArcSize=1;arcSize=10;dashed=0;whiteSpace=wrap;" parent="4QrN3t5a6KuFMCz43YTg-26" vertex="1">
          <mxGeometry x="240" y="175" width="130" height="60" as="geometry" />
        </mxCell>
        <mxCell id="4QrN3t5a6KuFMCz43YTg-72" style="edgeStyle=orthogonalEdgeStyle;rounded=0;orthogonalLoop=1;jettySize=auto;html=1;exitX=0;exitY=0.5;exitDx=0;exitDy=0;entryX=1;entryY=0.5;entryDx=0;entryDy=0;" parent="4QrN3t5a6KuFMCz43YTg-26" source="4QrN3t5a6KuFMCz43YTg-64" target="4QrN3t5a6KuFMCz43YTg-71" edge="1">
          <mxGeometry relative="1" as="geometry" />
        </mxCell>
        <mxCell id="4QrN3t5a6KuFMCz43YTg-64" value="Google AI Response" style="html=1;align=center;verticalAlign=middle;rounded=1;absoluteArcSize=1;arcSize=10;dashed=0;whiteSpace=wrap;" parent="4QrN3t5a6KuFMCz43YTg-26" vertex="1">
          <mxGeometry x="380" y="90" width="130" height="60" as="geometry" />
        </mxCell>
        <mxCell id="4QrN3t5a6KuFMCz43YTg-69" style="edgeStyle=orthogonalEdgeStyle;rounded=0;orthogonalLoop=1;jettySize=auto;html=1;exitX=0.5;exitY=1;exitDx=0;exitDy=0;exitPerimeter=0;entryX=1;entryY=0.5;entryDx=0;entryDy=0;" parent="4QrN3t5a6KuFMCz43YTg-26" source="4QrN3t5a6KuFMCz43YTg-66" target="4QrN3t5a6KuFMCz43YTg-49" edge="1">
          <mxGeometry relative="1" as="geometry">
            <mxPoint x="445" y="238.99999999999977" as="sourcePoint" />
          </mxGeometry>
        </mxCell>
        <mxCell id="4QrN3t5a6KuFMCz43YTg-66" value="" style="strokeWidth=2;html=1;shape=mxgraph.flowchart.decision;whiteSpace=wrap;" parent="4QrN3t5a6KuFMCz43YTg-26" vertex="1">
          <mxGeometry x="427.5" y="210" width="35" height="30" as="geometry" />
        </mxCell>
        <mxCell id="4QrN3t5a6KuFMCz43YTg-67" style="edgeStyle=orthogonalEdgeStyle;rounded=0;orthogonalLoop=1;jettySize=auto;html=1;exitX=0.5;exitY=1;exitDx=0;exitDy=0;entryX=0.5;entryY=0;entryDx=0;entryDy=0;entryPerimeter=0;" parent="4QrN3t5a6KuFMCz43YTg-26" source="4QrN3t5a6KuFMCz43YTg-64" target="4QrN3t5a6KuFMCz43YTg-66" edge="1">
          <mxGeometry relative="1" as="geometry" />
        </mxCell>
        <mxCell id="4QrN3t5a6KuFMCz43YTg-68" value="un OK response" style="edgeLabel;html=1;align=center;verticalAlign=middle;resizable=0;points=[];" parent="4QrN3t5a6KuFMCz43YTg-67" vertex="1" connectable="0">
          <mxGeometry x="-0.125" y="1" relative="1" as="geometry">
            <mxPoint as="offset" />
          </mxGeometry>
        </mxCell>
        <mxCell id="4QrN3t5a6KuFMCz43YTg-74" style="edgeStyle=orthogonalEdgeStyle;rounded=0;orthogonalLoop=1;jettySize=auto;html=1;exitX=0;exitY=0.5;exitDx=0;exitDy=0;" parent="4QrN3t5a6KuFMCz43YTg-26" source="4QrN3t5a6KuFMCz43YTg-71" target="4QrN3t5a6KuFMCz43YTg-73" edge="1">
          <mxGeometry relative="1" as="geometry" />
        </mxCell>
        <mxCell id="4QrN3t5a6KuFMCz43YTg-71" value="response preprocessing&amp;nbsp;" style="html=1;align=center;verticalAlign=middle;rounded=1;absoluteArcSize=1;arcSize=10;dashed=0;whiteSpace=wrap;" parent="4QrN3t5a6KuFMCz43YTg-26" vertex="1">
          <mxGeometry x="210" y="90" width="130" height="60" as="geometry" />
        </mxCell>
        <mxCell id="4QrN3t5a6KuFMCz43YTg-73" value="fs&lt;div&gt;file creation and writing&lt;/div&gt;" style="html=1;align=center;verticalAlign=middle;rounded=1;absoluteArcSize=1;arcSize=10;dashed=0;whiteSpace=wrap;" parent="4QrN3t5a6KuFMCz43YTg-26" vertex="1">
          <mxGeometry x="40" y="90" width="130" height="60" as="geometry" />
        </mxCell>
        <mxCell id="4QrN3t5a6KuFMCz43YTg-77" value="function contruction" style="whiteSpace=wrap;html=1;rounded=1;arcSize=50;align=center;verticalAlign=middle;strokeWidth=1;autosize=1;spacing=4;treeFolding=1;treeMoving=1;newEdgeStyle={&quot;edgeStyle&quot;:&quot;entityRelationEdgeStyle&quot;,&quot;startArrow&quot;:&quot;none&quot;,&quot;endArrow&quot;:&quot;none&quot;,&quot;segment&quot;:10,&quot;curved&quot;:1,&quot;sourcePerimeterSpacing&quot;:0,&quot;targetPerimeterSpacing&quot;:0};" parent="4QrN3t5a6KuFMCz43YTg-26" vertex="1">
          <mxGeometry x="280" y="40" width="100" height="30" as="geometry" />
        </mxCell>
        <mxCell id="4QrN3t5a6KuFMCz43YTg-79" value="default export function" style="whiteSpace=wrap;html=1;rounded=1;arcSize=50;align=center;verticalAlign=middle;strokeWidth=1;autosize=1;spacing=4;treeFolding=1;treeMoving=1;newEdgeStyle={&quot;edgeStyle&quot;:&quot;entityRelationEdgeStyle&quot;,&quot;startArrow&quot;:&quot;none&quot;,&quot;endArrow&quot;:&quot;none&quot;,&quot;segment&quot;:10,&quot;curved&quot;:1,&quot;sourcePerimeterSpacing&quot;:0,&quot;targetPerimeterSpacing&quot;:0};" parent="4QrN3t5a6KuFMCz43YTg-26" vertex="1">
          <mxGeometry x="125" y="40" width="100" height="30" as="geometry" />
        </mxCell>
        <mxCell id="4QrN3t5a6KuFMCz43YTg-80" value="" style="edgeStyle=entityRelationEdgeStyle;startArrow=none;endArrow=none;segment=10;curved=1;sourcePerimeterSpacing=0;targetPerimeterSpacing=0;rounded=0;exitX=1;exitY=0;exitDx=0;exitDy=0;" parent="4QrN3t5a6KuFMCz43YTg-26" source="4QrN3t5a6KuFMCz43YTg-73" target="4QrN3t5a6KuFMCz43YTg-79" edge="1">
          <mxGeometry relative="1" as="geometry">
            <mxPoint x="60" y="70" as="sourcePoint" />
          </mxGeometry>
        </mxCell>
        <mxCell id="4QrN3t5a6KuFMCz43YTg-78" value="" style="edgeStyle=entityRelationEdgeStyle;startArrow=none;endArrow=none;segment=10;curved=1;sourcePerimeterSpacing=0;targetPerimeterSpacing=0;rounded=0;exitX=0.75;exitY=0;exitDx=0;exitDy=0;" parent="4QrN3t5a6KuFMCz43YTg-26" target="4QrN3t5a6KuFMCz43YTg-77" edge="1" source="4QrN3t5a6KuFMCz43YTg-71">
          <mxGeometry relative="1" as="geometry">
            <mxPoint x="250" y="240" as="sourcePoint" />
            <Array as="points">
              <mxPoint x="220" y="205" />
            </Array>
          </mxGeometry>
        </mxCell>
        <mxCell id="4QrN3t5a6KuFMCz43YTg-34" style="edgeStyle=orthogonalEdgeStyle;rounded=0;orthogonalLoop=1;jettySize=auto;html=1;exitX=0;exitY=0.5;exitDx=0;exitDy=0;fillColor=#dae8fc;strokeColor=#6c8ebf;strokeWidth=2;" parent="1" source="4QrN3t5a6KuFMCz43YTg-31" target="4QrN3t5a6KuFMCz43YTg-33" edge="1">
          <mxGeometry relative="1" as="geometry" />
        </mxCell>
        <mxCell id="4QrN3t5a6KuFMCz43YTg-31" value="Response Object" style="rounded=1;whiteSpace=wrap;html=1;" parent="1" vertex="1">
          <mxGeometry x="796" y="509" width="120" height="60" as="geometry" />
        </mxCell>
        <mxCell id="4QrN3t5a6KuFMCz43YTg-51" style="edgeStyle=orthogonalEdgeStyle;rounded=0;orthogonalLoop=1;jettySize=auto;html=1;exitX=0.5;exitY=1;exitDx=0;exitDy=0;entryX=1;entryY=0.5;entryDx=0;entryDy=0;" parent="1" source="4QrN3t5a6KuFMCz43YTg-49" target="4QrN3t5a6KuFMCz43YTg-31" edge="1">
          <mxGeometry relative="1" as="geometry" />
        </mxCell>
        <mxCell id="4QrN3t5a6KuFMCz43YTg-65" style="edgeStyle=orthogonalEdgeStyle;rounded=0;orthogonalLoop=1;jettySize=auto;html=1;exitX=0.5;exitY=0;exitDx=0;exitDy=0;entryX=1;entryY=0.5;entryDx=0;entryDy=0;" parent="1" source="4QrN3t5a6KuFMCz43YTg-62" target="4QrN3t5a6KuFMCz43YTg-64" edge="1">
          <mxGeometry relative="1" as="geometry" />
        </mxCell>
        <mxCell id="4QrN3t5a6KuFMCz43YTg-62" value="Google AI processes" style="ellipse;shape=doubleEllipse;html=1;dashed=0;whiteSpace=wrap;aspect=fixed;" parent="1" vertex="1">
          <mxGeometry x="795" y="773" width="100" height="100" as="geometry" />
        </mxCell>
        <mxCell id="4QrN3t5a6KuFMCz43YTg-63" style="edgeStyle=orthogonalEdgeStyle;rounded=0;orthogonalLoop=1;jettySize=auto;html=1;exitX=1;exitY=0.5;exitDx=0;exitDy=0;" parent="1" source="4QrN3t5a6KuFMCz43YTg-58" target="4QrN3t5a6KuFMCz43YTg-62" edge="1">
          <mxGeometry relative="1" as="geometry">
            <Array as="points">
              <mxPoint x="535" y="950" />
              <mxPoint x="845" y="950" />
            </Array>
          </mxGeometry>
        </mxCell>
        <mxCell id="4QrN3t5a6KuFMCz43YTg-76" style="edgeStyle=orthogonalEdgeStyle;rounded=0;orthogonalLoop=1;jettySize=auto;html=1;exitX=0.5;exitY=1;exitDx=0;exitDy=0;entryX=1;entryY=0.5;entryDx=0;entryDy=0;strokeWidth=2;" parent="1" source="4QrN3t5a6KuFMCz43YTg-73" target="4QrN3t5a6KuFMCz43YTg-31" edge="1">
          <mxGeometry relative="1" as="geometry" />
        </mxCell>
        <mxCell id="4QrN3t5a6KuFMCz43YTg-82" style="edgeStyle=orthogonalEdgeStyle;rounded=0;orthogonalLoop=1;jettySize=auto;html=1;exitX=1;exitY=0.5;exitDx=0;exitDy=0;entryX=0.25;entryY=1;entryDx=0;entryDy=0;" parent="1" source="4QrN3t5a6KuFMCz43YTg-81" target="4QrN3t5a6KuFMCz43YTg-26" edge="1">
          <mxGeometry relative="1" as="geometry" />
        </mxCell>
        <mxCell id="4QrN3t5a6KuFMCz43YTg-81" value="Request object" style="rounded=1;whiteSpace=wrap;html=1;" parent="1" vertex="1">
          <mxGeometry x="795" y="439" width="120" height="60" as="geometry" />
        </mxCell>
        <mxCell id="4QrN3t5a6KuFMCz43YTg-84" style="edgeStyle=orthogonalEdgeStyle;rounded=0;orthogonalLoop=1;jettySize=auto;html=1;exitX=0.5;exitY=1;exitDx=0;exitDy=0;entryX=0;entryY=0.5;entryDx=0;entryDy=0;" parent="1" source="4QrN3t5a6KuFMCz43YTg-24" target="4QrN3t5a6KuFMCz43YTg-81" edge="1">
          <mxGeometry relative="1" as="geometry">
            <Array as="points">
              <mxPoint x="265" y="544" />
              <mxPoint x="780" y="544" />
              <mxPoint x="780" y="470" />
              <mxPoint x="795" y="470" />
            </Array>
          </mxGeometry>
        </mxCell>
        <mxCell id="4QrN3t5a6KuFMCz43YTg-93" style="edgeStyle=orthogonalEdgeStyle;rounded=0;orthogonalLoop=1;jettySize=auto;html=1;exitX=0;exitY=0.5;exitDx=0;exitDy=0;exitPerimeter=0;entryX=0;entryY=0.5;entryDx=0;entryDy=0;" parent="1" source="4QrN3t5a6KuFMCz43YTg-88" target="4QrN3t5a6KuFMCz43YTg-81" edge="1">
          <mxGeometry relative="1" as="geometry">
            <Array as="points">
              <mxPoint x="370" y="375" />
              <mxPoint x="370" y="610" />
              <mxPoint x="780" y="610" />
              <mxPoint x="780" y="470" />
              <mxPoint x="795" y="470" />
            </Array>
            <mxPoint x="760" y="750" as="targetPoint" />
          </mxGeometry>
        </mxCell>
        <mxCell id="4QrN3t5a6KuFMCz43YTg-94" value="rejected, re-request" style="edgeLabel;html=1;align=center;verticalAlign=middle;resizable=0;points=[];" parent="4QrN3t5a6KuFMCz43YTg-93" vertex="1" connectable="0">
          <mxGeometry x="-0.551" y="2" relative="1" as="geometry">
            <mxPoint x="-2" y="-29" as="offset" />
          </mxGeometry>
        </mxCell>
        <mxCell id="4QrN3t5a6KuFMCz43YTg-103" style="edgeStyle=orthogonalEdgeStyle;rounded=0;orthogonalLoop=1;jettySize=auto;html=1;exitX=0;exitY=0.5;exitDx=0;exitDy=0;entryX=1;entryY=0.5;entryDx=0;entryDy=0;" parent="1" source="4QrN3t5a6KuFMCz43YTg-97" target="4QrN3t5a6KuFMCz43YTg-99" edge="1">
          <mxGeometry relative="1" as="geometry" />
        </mxCell>
        <mxCell id="4QrN3t5a6KuFMCz43YTg-97" value="trigger rebuild" style="rounded=1;whiteSpace=wrap;html=1;" parent="1" vertex="1">
          <mxGeometry x="767" y="115" width="120" height="60" as="geometry" />
        </mxCell>
        <mxCell id="4QrN3t5a6KuFMCz43YTg-98" style="edgeStyle=orthogonalEdgeStyle;rounded=0;orthogonalLoop=1;jettySize=auto;html=1;entryX=1;entryY=0.5;entryDx=0;entryDy=0;exitX=0.5;exitY=1;exitDx=0;exitDy=0;" parent="1" source="4QrN3t5a6KuFMCz43YTg-73" target="4QrN3t5a6KuFMCz43YTg-97" edge="1">
          <mxGeometry relative="1" as="geometry">
            <mxPoint x="230" y="900" as="sourcePoint" />
            <Array as="points">
              <mxPoint x="240" y="724" />
              <mxPoint x="240" y="970" />
              <mxPoint x="960" y="970" />
              <mxPoint x="960" y="129" />
              <mxPoint x="887" y="129" />
            </Array>
          </mxGeometry>
        </mxCell>
        <mxCell id="4QrN3t5a6KuFMCz43YTg-102" style="edgeStyle=orthogonalEdgeStyle;rounded=0;orthogonalLoop=1;jettySize=auto;html=1;exitX=0.5;exitY=1;exitDx=0;exitDy=0;entryX=0.25;entryY=0;entryDx=0;entryDy=0;" parent="1" source="4QrN3t5a6KuFMCz43YTg-99" target="4QrN3t5a6KuFMCz43YTg-8" edge="1">
          <mxGeometry relative="1" as="geometry" />
        </mxCell>
        <mxCell id="4QrN3t5a6KuFMCz43YTg-99" value="Build&amp;nbsp; ready library" style="rounded=1;whiteSpace=wrap;html=1;" parent="1" vertex="1">
          <mxGeometry x="267" y="121" width="83" height="51" as="geometry" />
        </mxCell>
      </root>
    </mxGraphModel>
  </diagram>
</mxfile>
